# xmcd CD database file
#
# Track frame offsets:
#	183
#	15198
#	28288
#	42688
#	54860
#	69390
#	82510
#	95978
#	109140
#	121558
#	133820
#	146510
#	159100
#	171883
#	184563
#	198045
#	210680
#	223090
#	235495
#	248528
#	263975
#	276723
#	290240
#	303415
#	314293
#
# Disc length: 4355 seconds
#
# Revision: 3
# Processed by: cddbd v1.5.2PL0 Copyright (c) Steve Scherf et al.
# Submitted via: CDex 1.51
#
DISCID=6a110119
DTITLE=Various Artist - Great Classic Blues Singers  {1927-1941}
DYEAR=1993
DGENRE=General Blues
TTITLE0=Blind Blake (=Arthur Phelps) - Georgia Bound   [1929]
TTITLE1=Blind Blake - Too Tight Blues   [1929]
TTITLE2=Blind Blake - Hastings Street   [1927]
TTITLE3=Blind Blake - He's In The Jailhouse Now   [1928]
TTITLE4=Blind Blake - Sweet Papa Low Down   [19xx]
TTITLE5=Blind Lemon Jefferson ( =Deacon L. J. Bates) - Easy Rider Blues   [1927]
TTITLE6=Blind Lemon Jefferson - Match Box Blues   [1927]
TTITLE7=Blind Lemon Jefferson - Hot Dogs   [1927]
TTITLE8=Blind Lemon Jefferson - Rambler Blues   [1929]
TTITLE9=Blind Lemon Jefferson - Oil Well Blues   [19xx]
TTITLE10=Georgia Tom ( =Thomas A. Dordey) - Selling That Stuff   [1930]
TTITLE11=Georgia Tom - Mississipi Bottom Blues   [1930]
TTITLE12=Georgia Tom - Come On Mama, Do That Dance   [1930]
TTITLE13=Georgia Tom - Terrible Operation Blues   [1929]
TTITLE14=Georgia Tom - Rollin' Mill Blues   [19xx]
TTITLE15=Tampa Red ( =Hudson Whittaker) - What Is It That Tastes Like Gravy ¿   [1929]
TTITLE16=Tampa Red - Come On Mama, Do That Dance   [1929]
TTITLE17=Tampa Red - House Rent Scuffle   [1934]
TTITLE18=Tampa Red - Denver Blues   [1929]
TTITLE19=Tampa Red - It's Heated   [19xx]
TTITLE20=Big Bull Broonzy ( =William Lee Conley Broonzy) - Bull Cow Blues   [1936]
TTITLE21=Big Bull Broonzy - Big Bill Blues (these blues keep doggin' me)   [1940]
TTITLE22=Big Bull Broonzy - Medecine Man Blues   [1941]
TTITLE23=Big Bull Broonzy - All By Myself   [1941]
TTITLE24=Big Bull Broonzy - Night Watchman Blues   [19xx]
EXTD=william hale YEAR: 1993
EXTT0=
EXTT1=
EXTT2=
EXTT3=
EXTT4=
EXTT5=
EXTT6=
EXTT7=
EXTT8=
EXTT9=
EXTT10=
EXTT11=
EXTT12=
EXTT13=
EXTT14=
EXTT15=
EXTT16=
EXTT17=
EXTT18=
EXTT19=
EXTT20=
EXTT21=
EXTT22=
EXTT23=
EXTT24=
PLAYORDER=
